FILE "Jessie Jaeger in Cleopatra's Curse (World) (Unl) (Homebrew) (Track 01).bin" BINARY
  TRACK 01 AUDIO
    INDEX 01 00:00:00
FILE "Jessie Jaeger in Cleopatra's Curse (World) (Unl) (Homebrew) (Track 02).bin" BINARY
  TRACK 02 MODE1/2352
    INDEX 00 00:00:00
    INDEX 01 00:03:00
FILE "Jessie Jaeger in Cleopatra's Curse (World) (Unl) (Homebrew) (Track 03).bin" BINARY
  TRACK 03 AUDIO
    INDEX 00 00:00:00
    INDEX 01 00:02:00
FILE "Jessie Jaeger in Cleopatra's Curse (World) (Unl) (Homebrew) (Track 04).bin" BINARY
  TRACK 04 AUDIO
    INDEX 01 00:00:00
FILE "Jessie Jaeger in Cleopatra's Curse (World) (Unl) (Homebrew) (Track 05).bin" BINARY
  TRACK 05 AUDIO
    INDEX 01 00:00:00
FILE "Jessie Jaeger in Cleopatra's Curse (World) (Unl) (Homebrew) (Track 06).bin" BINARY
  TRACK 06 AUDIO
    INDEX 01 00:00:00
FILE "Jessie Jaeger in Cleopatra's Curse (World) (Unl) (Homebrew) (Track 07).bin" BINARY
  TRACK 07 AUDIO
    INDEX 01 00:00:00
FILE "Jessie Jaeger in Cleopatra's Curse (World) (Unl) (Homebrew) (Track 08).bin" BINARY
  TRACK 08 AUDIO
    INDEX 01 00:00:00
FILE "Jessie Jaeger in Cleopatra's Curse (World) (Unl) (Homebrew) (Track 09).bin" BINARY
  TRACK 09 AUDIO
    INDEX 01 00:00:00
FILE "Jessie Jaeger in Cleopatra's Curse (World) (Unl) (Homebrew) (Track 10).bin" BINARY
  TRACK 10 AUDIO
    INDEX 01 00:00:00
FILE "Jessie Jaeger in Cleopatra's Curse (World) (Unl) (Homebrew) (Track 11).bin" BINARY
  TRACK 11 AUDIO
    INDEX 01 00:00:00
FILE "Jessie Jaeger in Cleopatra's Curse (World) (Unl) (Homebrew) (Track 12).bin" BINARY
  TRACK 12 AUDIO
    INDEX 01 00:00:00
FILE "Jessie Jaeger in Cleopatra's Curse (World) (Unl) (Homebrew) (Track 13).bin" BINARY
  TRACK 13 AUDIO
    INDEX 01 00:00:00
FILE "Jessie Jaeger in Cleopatra's Curse (World) (Unl) (Homebrew) (Track 14).bin" BINARY
  TRACK 14 AUDIO
    INDEX 01 00:00:00
FILE "Jessie Jaeger in Cleopatra's Curse (World) (Unl) (Homebrew) (Track 15).bin" BINARY
  TRACK 15 AUDIO
    INDEX 01 00:00:00
